<svg xmlns="http://www.w3.org/2000/svg" height="20" width="20"><path d="M10 19.021q-1.854 0-3.49-.709-1.635-.708-2.875-1.947-1.239-1.24-1.948-2.875-.708-1.636-.708-3.511 0-1.854.708-3.489.709-1.636 1.948-2.865 1.24-1.229 2.886-1.937 1.646-.709 3.5-.709t3.489.709q1.636.708 2.865 1.947 1.229 1.24 1.937 2.875.709 1.636.709 3.49 0 1.854-.709 3.5-.708 1.646-1.937 2.875T13.5 18.312q-1.646.709-3.5.709ZM8.979 16.75v-1.521q-.458 0-.781-.323t-.323-.76v-1.042L3.312 8.542q-.062.354-.104.708-.041.354-.041.75 0 2.604 1.677 4.49 1.677 1.885 4.135 2.26Zm6.271-2.396q-1.167 1.167-1.062.906.104-.26.687-1.187.583-.927 1.271-2.135.687-1.209.687-1.959 0-2.167-1.166-3.864-1.167-1.698-3.042-2.448v.5q0 .645-.469 1.125-.468.479-1.135.479H8.979v1.083q0 .417-.302.719t-.739.302H6.812v2.104h5.271q.438 0 .74.302t.302.719v2.167h.896q.521 0 .875.343.354.344.354.844Z" fill="#9ca4b0"/></svg>